<svg width="18" height="9" viewBox="0 0 18 9" fill="none" xmlns="http://www.w3.org/2000/svg">
<path d="M3.90203 2.57L1.74203 7.65C1.69536 7.77667 1.62203 7.87667 1.52203 7.95C1.4287 8.01667 1.32536 8.05 1.21203 8.05C1.03203 8.05 0.898698 8 0.812031 7.9C0.725365 7.8 0.682031 7.67667 0.682031 7.53C0.682031 7.47 0.692031 7.40667 0.712031 7.34L3.20203 1.36C3.25536 1.22667 3.33536 1.12333 3.44203 1.05C3.55536 0.976666 3.67536 0.946666 3.80203 0.959999C3.92203 0.959999 4.03203 0.996666 4.13203 1.07C4.2387 1.13667 4.31536 1.23333 4.36203 1.36L6.82203 7.22C6.85536 7.30667 6.87203 7.38667 6.87203 7.46C6.87203 7.64 6.81203 7.78333 6.69203 7.89C6.5787 7.99667 6.45203 8.05 6.31203 8.05C6.19203 8.05 6.08203 8.01333 5.98203 7.94C5.8887 7.86667 5.81536 7.76667 5.76203 7.64L3.61203 2.63L3.90203 2.57ZM2.05203 6.43L2.60203 5.28H5.30203L5.49203 6.43H2.05203ZM8.07875 5.53C7.90542 5.53 7.75875 5.47333 7.63875 5.36C7.52542 5.24667 7.46875 5.10333 7.46875 4.93C7.46875 4.75667 7.52542 4.61667 7.63875 4.51C7.75875 4.39667 7.90542 4.34 8.07875 4.34H9.81875C9.99208 4.34 10.1354 4.4 10.2488 4.52C10.3688 4.63333 10.4288 4.77667 10.4288 4.95C10.4288 5.11667 10.3688 5.25667 10.2488 5.37C10.1354 5.47667 9.99208 5.53 9.81875 5.53H8.07875ZM16.4136 1C16.5603 1 16.7036 1.05333 16.8436 1.16C16.9903 1.26667 17.0636 1.41 17.0636 1.59C17.0636 1.71667 17.0169 1.84333 16.9236 1.97L13.0936 6.89L12.9736 6.85H16.3136C16.4869 6.85 16.6303 6.90333 16.7436 7.01C16.8636 7.11 16.9236 7.24667 16.9236 7.42C16.9236 7.58667 16.8636 7.72667 16.7436 7.84C16.6303 7.94667 16.4869 8 16.3136 8H11.9236C11.7503 8 11.6003 7.94 11.4736 7.82C11.3469 7.69333 11.2836 7.55667 11.2836 7.41C11.2836 7.28333 11.3303 7.15667 11.4236 7.03L15.2636 2.09L15.3536 2.15H12.3236C12.1503 2.15 12.0036 2.09667 11.8836 1.99C11.7703 1.88333 11.7136 1.74333 11.7136 1.57C11.7136 1.39667 11.7703 1.26 11.8836 1.16C12.0036 1.05333 12.1503 1 12.3236 1H16.4136Z" fill="white"/>
</svg>
