<svg width="18" height="18" viewBox="0 0 18 18" fill="none" xmlns="http://www.w3.org/2000/svg">
<path d="M7.80005 1.79999C4.49345 1.79999 1.80005 4.49339 1.80005 7.79999C1.80005 11.1066 4.49345 13.8 7.80005 13.8C9.23795 13.8 10.5585 13.2894 11.5934 12.4418L15.1758 16.0242C15.2311 16.0818 15.2973 16.1278 15.3706 16.1594C15.4439 16.1911 15.5228 16.2078 15.6026 16.2087C15.6824 16.2095 15.7616 16.1943 15.8355 16.1642C15.9094 16.134 15.9765 16.0894 16.033 16.0329C16.0894 15.9765 16.1341 15.9093 16.1642 15.8354C16.1944 15.7615 16.2095 15.6823 16.2087 15.6025C16.2079 15.5227 16.1912 15.4438 16.1595 15.3706C16.1278 15.2973 16.0819 15.2311 16.0243 15.1758L12.4418 11.5933C13.2894 10.5584 13.8 9.23789 13.8 7.79999C13.8 4.49339 11.1067 1.79999 7.80005 1.79999ZM7.80005 2.99999C10.4581 2.99999 12.6 5.14191 12.6 7.79999C12.6 10.4581 10.4581 12.6 7.80005 12.6C5.14198 12.6 3.00005 10.4581 3.00005 7.79999C3.00005 5.14191 5.14198 2.99999 7.80005 2.99999Z" fill="#7A7A7A"/>
</svg>
